<svg width="25" height="24" viewBox="0 0 25 24" fill="none" xmlns="http://www.w3.org/2000/svg">
<path d="M13.5009 19C13.5009 19.5523 13.0532 20 12.5009 20C11.9486 20 11.5009 19.5523 11.5009 19L13.5009 19ZM11.7938 2.29292C12.1844 1.90239 12.8175 1.90239 13.2081 2.29292L19.572 8.65689C19.9625 9.04741 19.9625 9.68058 19.572 10.0711C19.1815 10.4616 18.5483 10.4616 18.1578 10.0711L12.501 4.41424L6.84409 10.0711C6.45356 10.4616 5.8204 10.4616 5.42988 10.0711C5.03935 9.68056 5.03935 9.04739 5.42988 8.65687L11.7938 2.29292ZM11.5009 19L11.501 3.00002L13.501 3.00003L13.5009 19L11.5009 19Z" fill="black"/>
</svg>
