<svg width="25" height="24" viewBox="0 0 25 24" fill="none" xmlns="http://www.w3.org/2000/svg">
<circle cx="12.5" cy="12" r="9" stroke="black" stroke-width="2"/>
<path d="M16.0892 7.57838C16.3842 7.28636 16.86 7.28873 17.152 7.58368C17.444 7.87862 17.4417 8.35445 17.1467 8.64647L16.0892 7.57838ZM8.80587 16.5948C8.39083 16.5927 8.05604 16.2546 8.05811 15.8396L8.09183 9.07599C8.0939 8.66095 8.43204 8.32616 8.84708 8.32823C9.26213 8.3303 9.59691 8.66844 9.59484 9.08349L9.56487 15.0955L15.5769 15.1255C15.992 15.1276 16.3268 15.4657 16.3247 15.8808C16.3226 16.2958 15.9845 16.6306 15.5694 16.6285L8.80587 16.5948ZM17.1467 8.64647L9.33837 16.3773L8.28087 15.3093L16.0892 7.57838L17.1467 8.64647Z" fill="black"/>
</svg>
