<svg width="25" height="24" viewBox="0 0 25 24" fill="none" xmlns="http://www.w3.org/2000/svg">
<circle cx="12.5" cy="12" r="9" stroke="black" stroke-width="2"/>
<path d="M9.33839 7.57838C9.04345 7.28636 8.56762 7.28873 8.2756 7.58367C7.98358 7.87862 7.98596 8.35445 8.2809 8.64646L9.33839 7.57838ZM16.6217 16.5948C17.0368 16.5927 17.3716 16.2546 17.3695 15.8396L17.3358 9.07599C17.3337 8.66094 16.9956 8.32616 16.5805 8.32823C16.1655 8.3303 15.8307 8.66844 15.8328 9.08348L15.8627 15.0955L9.85068 15.1255C9.43563 15.1276 9.10085 15.4657 9.10292 15.8808C9.10499 16.2958 9.44313 16.6306 9.85817 16.6285L16.6217 16.5948ZM8.2809 8.64646L16.0892 16.3773L17.1467 15.3093L9.33839 7.57838L8.2809 8.64646Z" fill="black"/>
</svg>
