<svg width="25" height="24" viewBox="0 0 25 24" fill="none" xmlns="http://www.w3.org/2000/svg">
<path d="M13.5009 5C13.5009 4.44771 13.0532 4 12.5009 4C11.9487 4 11.5009 4.44772 11.5009 5L13.5009 5ZM11.7938 21.7071C12.1844 22.0976 12.8175 22.0976 13.2081 21.7071L19.572 15.3431C19.9625 14.9526 19.9625 14.3195 19.572 13.9289C19.1815 13.5384 18.5483 13.5384 18.1578 13.9289L12.501 19.5858L6.8441 13.9289C6.45357 13.5384 5.82041 13.5384 5.42988 13.9289C5.03936 14.3195 5.03936 14.9526 5.42988 15.3432L11.7938 21.7071ZM11.5009 5L11.501 21L13.501 21L13.5009 5L11.5009 5Z" fill="black"/>
</svg>
