<svg width="25" height="24" viewBox="0 0 25 24" fill="none" xmlns="http://www.w3.org/2000/svg">
<circle cx="12.5" cy="12" r="9" stroke="black" stroke-width="2"/>
<path d="M13.2734 6.73347C13.2738 6.31842 12.9376 5.98169 12.5225 5.98136C12.1075 5.98103 11.7707 6.31723 11.7704 6.73228L13.2734 6.73347ZM11.9814 18.2519C12.2747 18.5456 12.7505 18.546 13.0442 18.2527L17.8306 13.4739C18.1243 13.1806 18.1247 12.7048 17.8314 12.4111C17.5382 12.1174 17.0624 12.117 16.7686 12.4102L12.5141 16.6581L8.26621 12.4035C7.97296 12.1098 7.49712 12.1094 7.20341 12.4027C6.90969 12.6959 6.90931 13.1718 7.20257 13.4655L11.9814 18.2519ZM11.7704 6.73228L11.7617 17.7203L13.2647 17.7215L13.2734 6.73347L11.7704 6.73228Z" fill="black"/>
</svg>
