<svg width="25" height="24" viewBox="0 0 25 24" fill="none" xmlns="http://www.w3.org/2000/svg">
<circle cx="12.5" cy="12" r="9" stroke="black" stroke-width="2"/>
<path d="M6.76866 11.2379C6.35444 11.237 6.01791 11.572 6.017 11.9862C6.01608 12.4004 6.35113 12.737 6.76534 12.7379L6.76866 11.2379ZM18.262 12.5436C18.5555 12.2514 18.5566 11.7765 18.2643 11.483L13.5019 6.69945C13.2097 6.40591 12.7348 6.40486 12.4413 6.69711C12.1477 6.98936 12.1467 7.46423 12.4389 7.75777L16.6722 12.0098L12.4202 16.243C12.1266 16.5353 12.1256 17.0101 12.4178 17.3037C12.7101 17.5972 13.1849 17.5983 13.4785 17.306L18.262 12.5436ZM6.76534 12.7379L17.7312 12.7621L17.7345 11.2621L6.76866 11.2379L6.76534 12.7379Z" fill="black"/>
</svg>
