<svg width="25" height="24" viewBox="0 0 25 24" fill="none" xmlns="http://www.w3.org/2000/svg">
<circle cx="12.5" cy="12" r="9" stroke="black" stroke-width="2"/>
<path d="M13.2734 17.7203C13.2737 18.1353 12.9375 18.4721 12.5225 18.4724C12.1074 18.4727 11.7707 18.1365 11.7704 17.7215L13.2734 17.7203ZM11.9814 6.20188C12.2746 5.90817 12.7505 5.90779 13.0442 6.20104L17.8306 10.9799C18.1243 11.2731 18.1247 11.749 17.8314 12.0427C17.5382 12.3364 17.0623 12.3368 16.7686 12.0435L12.5141 7.79567L8.2662 12.0502C7.97294 12.344 7.49711 12.3443 7.20339 12.0511C6.90967 11.7578 6.9093 11.282 7.20255 10.9883L11.9814 6.20188ZM11.7704 17.7215L11.7617 6.73346L13.2647 6.73227L13.2734 17.7203L11.7704 17.7215Z" fill="black"/>
</svg>
