<svg width="25" height="24" viewBox="0 0 25 24" fill="none" xmlns="http://www.w3.org/2000/svg">
<circle cx="12.5" cy="12" r="9" stroke="black" stroke-width="2"/>
<path d="M9.33837 16.3773C9.04342 16.6694 8.5676 16.667 8.27558 16.372C7.98356 16.0771 7.98593 15.6013 8.28088 15.3093L9.33837 16.3773ZM16.6217 7.36092C17.0368 7.36299 17.3715 7.70112 17.3695 8.11617L17.3358 14.8797C17.3337 15.2948 16.9955 15.6296 16.5805 15.6275C16.1655 15.6254 15.8307 15.2873 15.8327 14.8722L15.8627 8.86018L9.85065 8.83022C9.43561 8.82815 9.10083 8.49001 9.10289 8.07496C9.10496 7.65992 9.4431 7.32513 9.85815 7.3272L16.6217 7.36092ZM8.28088 15.3093L16.0892 7.57838L17.1467 8.64647L9.33837 16.3773L8.28088 15.3093Z" fill="black"/>
</svg>
