<svg width="25" height="24" viewBox="0 0 25 24" fill="none" xmlns="http://www.w3.org/2000/svg">
<circle cx="12.5" cy="12" r="9" stroke="black" stroke-width="2"/>
<path d="M16.0892 16.3773C16.3842 16.6694 16.86 16.667 17.152 16.372C17.444 16.0771 17.4417 15.6013 17.1467 15.3093L16.0892 16.3773ZM8.80587 7.36091C8.39083 7.36298 8.05604 7.70112 8.05811 8.11616L8.09183 14.8797C8.0939 15.2948 8.43204 15.6296 8.84708 15.6275C9.26213 15.6254 9.59691 15.2873 9.59484 14.8722L9.56487 8.86018L15.5769 8.83021C15.992 8.82814 16.3268 8.49 16.3247 8.07495C16.3226 7.65991 15.9845 7.32512 15.5694 7.32719L8.80587 7.36091ZM17.1467 15.3093L9.33837 7.57837L8.28087 8.64646L16.0892 16.3773L17.1467 15.3093Z" fill="black"/>
</svg>
