<svg width="25" height="24" viewBox="0 0 25 24" fill="none" xmlns="http://www.w3.org/2000/svg">
<path d="M19.5 11C20.0523 11 20.5 11.4477 20.5 12C20.5 12.5523 20.0523 13 19.5 13L19.5 11ZM2.79291 12.7071C2.40239 12.3166 2.40238 11.6834 2.79291 11.2929L9.15687 4.92893C9.54739 4.5384 10.1806 4.5384 10.5711 4.92893C10.9616 5.31945 10.9616 5.95261 10.5711 6.34314L4.91423 12L10.5711 17.6568C10.9616 18.0474 10.9616 18.6805 10.5711 19.0711C10.1806 19.4616 9.5474 19.4616 9.15688 19.0711L2.79291 12.7071ZM19.5 13L3.50002 13L3.50002 11L19.5 11L19.5 13Z" fill="black"/>
</svg>
