<svg width="25" height="24" viewBox="0 0 25 24" fill="none" xmlns="http://www.w3.org/2000/svg">
<path d="M9.75717 20.0517C9.75713 20.4659 9.4213 20.8017 9.00709 20.8016C8.59288 20.8016 8.25713 20.4657 8.25717 20.0515L9.75717 20.0517ZM8.47855 4.46961C8.77147 4.17675 9.24635 4.17681 9.53921 4.46973L14.3117 9.24322C14.6045 9.53615 14.6045 10.011 14.3115 10.3039C14.0186 10.5967 13.5437 10.5967 13.2509 10.3038L9.0087 6.06066L4.7656 10.3028C4.47267 10.5957 3.9978 10.5956 3.70494 10.3027C3.41208 10.0098 3.41213 9.53492 3.70505 9.24206L8.47855 4.46961ZM8.25717 20.0515L8.25882 4.99992L9.75882 5.00008L9.75717 20.0517L8.25717 20.0515Z" fill="black"/>
<path d="M16.7572 3.78771C16.7571 3.3735 16.4213 3.03775 16.0071 3.0378C15.5929 3.03784 15.2571 3.37366 15.2572 3.78788L16.7572 3.78771ZM15.4785 19.3698C15.7715 19.6626 16.2463 19.6626 16.5392 19.3697L21.3117 14.5962C21.6045 14.3033 21.6045 13.8284 21.3115 13.5355C21.0186 13.2427 20.5437 13.2427 20.2509 13.5356L16.0087 17.7787L11.7656 13.5366C11.4727 13.2437 10.9978 13.2438 10.7049 13.5367C10.4121 13.8296 10.4121 14.3045 10.7051 14.5973L15.4785 19.3698ZM15.2572 3.78788L15.2588 18.8395L16.7588 18.8393L16.7572 3.78771L15.2572 3.78788Z" fill="black"/>
</svg>
