<svg width="25" height="24" viewBox="0 0 25 24" fill="none" xmlns="http://www.w3.org/2000/svg">
<path d="M5.49998 11C4.94769 11 4.49998 11.4477 4.49998 12C4.49998 12.5523 4.94769 13 5.49998 13L5.49998 11ZM22.2071 12.7071C22.5976 12.3166 22.5976 11.6834 22.2071 11.2929L15.8431 4.92893C15.4526 4.53841 14.8195 4.53841 14.4289 4.92893C14.0384 5.31946 14.0384 5.95262 14.4289 6.34315L20.0858 12L14.4289 17.6569C14.0384 18.0474 14.0384 18.6805 14.4289 19.0711C14.8195 19.4616 15.4526 19.4616 15.8432 19.0711L22.2071 12.7071ZM5.49998 13L21.5 13L21.5 11L5.49998 11L5.49998 13Z" fill="black"/>
</svg>
