<svg width="25" height="24" viewBox="0 0 25 24" fill="none" xmlns="http://www.w3.org/2000/svg">
<path d="M17.75 7H7.5C5.61438 7 4.67157 7 4.08579 7.58579C3.5 8.17157 3.5 9.11438 3.5 11V15C3.5 16.8856 3.5 17.8284 4.08579 18.4142C4.67157 19 5.61438 19 7.5 19H17.75C18.7165 19 19.5 18.2165 19.5 17.25V16.5C19.5 15.9477 19.9477 15.5 20.5 15.5C21.0523 15.5 21.5 15.0523 21.5 14.5V11.5C21.5 10.9477 21.0523 10.5 20.5 10.5C19.9477 10.5 19.5 10.0523 19.5 9.5V8.75C19.5 7.7835 18.7165 7 17.75 7Z" stroke="black" stroke-width="2"/>
<path d="M6.5 15V11" stroke="black" stroke-width="2" stroke-linecap="round"/>
<path d="M9.5 15V11" stroke="black" stroke-width="2" stroke-linecap="round"/>
<path d="M12.5 15V11" stroke="black" stroke-width="2" stroke-linecap="round"/>
<path d="M15.5 15V11" stroke="black" stroke-width="2" stroke-linecap="round"/>
</svg>
