<svg width="25" height="24" viewBox="0 0 25 24" fill="none" xmlns="http://www.w3.org/2000/svg">
<path d="M21.5 16V7C21.5 5.11438 21.5 4.17157 20.9142 3.58579C20.3284 3 19.3856 3 17.5 3H7.5C5.61438 3 4.67157 3 4.08579 3.58579C3.5 4.17157 3.5 5.11438 3.5 7V13.5V16" stroke="black" stroke-width="2"/>
<path d="M8.5 8L16.5 8" stroke="black" stroke-width="2" stroke-linecap="round"/>
<path d="M21.5 15H12.5H12.3151C10.6628 15 9.83668 15 9.05868 15.1559C7.85978 15.396 6.73189 15.9078 5.76165 16.6519C5.13203 17.1348 4.58802 17.7565 3.5 19V19" stroke="black" stroke-width="2"/>
<path d="M3.5 13V17C3.5 18.8856 3.5 19.8284 4.08579 20.4142C4.67157 21 5.61438 21 7.5 21H17.5C19.3856 21 20.3284 21 20.9142 20.4142C21.5 19.8284 21.5 18.8856 21.5 17V13" stroke="black" stroke-width="2"/>
</svg>
