<svg width="25" height="24" viewBox="0 0 25 24" fill="none" xmlns="http://www.w3.org/2000/svg">
<path d="M18.5 15V11.6667C18.5 10.1939 17.3061 9 15.8333 9L12.1429 9L9.16666 9C7.69391 9 6.5 10.1939 6.5 11.6667V15C6.5 18.3137 9.18629 21 12.5 21C15.8137 21 18.5 18.3137 18.5 15Z" stroke="black" stroke-width="2"/>
<path d="M12.1667 5H12.8333C14.3061 5 15.5 6.19391 15.5 7.66667C15.5 8.40305 14.903 9 14.1667 9L12.3571 9L10.8333 9C10.097 9 9.5 8.40305 9.5 7.66667C9.5 6.19391 10.6939 5 12.1667 5Z" stroke="black" stroke-width="2"/>
<path d="M8.91246 3.1908L10.0875 4.8092" stroke="black" stroke-width="2" stroke-linecap="round"/>
<path d="M4.5 15L6.5 15" stroke="black" stroke-width="2" stroke-linecap="round"/>
<path d="M18.5 15L20.5 15" stroke="black" stroke-width="2" stroke-linecap="round"/>
<path d="M5.50002 20.163L7.12711 19" stroke="black" stroke-width="2" stroke-linecap="round"/>
<path d="M19.1271 20.163L17.5 19" stroke="black" stroke-width="2" stroke-linecap="round"/>
<path d="M4.50002 10L6.50002 11" stroke="black" stroke-width="2" stroke-linecap="round"/>
<path d="M20.5 10L18.5 11" stroke="black" stroke-width="2" stroke-linecap="round"/>
<path d="M15.6751 3.1908L14.5 4.80919" stroke="black" stroke-width="2" stroke-linecap="round"/>
</svg>
