<svg width="25" height="24" viewBox="0 0 25 24" fill="none" xmlns="http://www.w3.org/2000/svg">
<path d="M12.6967 20.1003L14.6817 19.6354L15.1685 19.5213C16.244 19.2695 16.9116 18.1934 16.6598 17.118L16.3192 15.6639C16.1158 14.7954 15.3618 14.1666 14.4709 14.1224L13.5227 14.0755C12.6233 14.0309 11.8646 13.3908 11.6693 12.5118L11.4076 11.3341C11.1854 10.3344 11.8416 9.35117 12.8501 9.17283C13.8665 8.99309 14.5235 7.99662 14.2881 6.99162L13.8093 4.94731C13.5574 3.87184 12.4814 3.20419 11.4059 3.45607L8.80474 4.06529C8.28829 4.18624 7.84346 4.50923 7.65663 5.00567C7.09915 6.48697 6.31664 9.78935 7.61634 13.5872C8.63384 16.5604 10.0804 18.5963 11.0642 19.6584C11.4771 20.1041 12.1051 20.2388 12.6967 20.1003Z" stroke="black" stroke-width="2" stroke-linecap="round"/>
</svg>
