<svg width="25" height="24" viewBox="0 0 25 24" fill="none" xmlns="http://www.w3.org/2000/svg">
<path d="M4.90283 13.2845C5.18834 11.7141 5.33109 10.929 5.88766 10.4645C6.44422 10 7.24225 10 8.83831 10H16.1617C17.7577 10 18.5558 10 19.1123 10.4645C19.6689 10.929 19.8117 11.7141 20.0972 13.2845L20.6426 16.2845C21.04 18.4701 21.2387 19.563 20.6391 20.2815C20.0394 21 18.9287 21 16.7071 21H8.29285C6.07133 21 4.96057 21 4.36092 20.2815C3.76127 19.563 3.95997 18.4701 4.35737 16.2845L4.90283 13.2845Z" stroke="black" stroke-width="2"/>
<path d="M14.6213 14.8787C15.0968 15.3542 15.3962 15.9729 15.4775 16.6334C15.5023 16.8349 15.3355 17 15.1325 17V17C14.9296 17 14.7681 16.8344 14.7353 16.6341C14.6592 16.169 14.4392 15.7359 14.1016 15.3984C13.6769 14.9736 13.1007 14.7349 12.5 14.7349C11.8993 14.7349 11.3231 14.9736 10.8984 15.3984C10.5608 15.7359 10.3408 16.169 10.2647 16.6341C10.2319 16.8344 10.0704 17 9.86747 17V17C9.66452 17 9.49767 16.8349 9.52247 16.6334C9.60377 15.9729 9.90317 15.3542 10.3787 14.8787C10.9413 14.3161 11.7044 14 12.5 14C13.2956 14 14.0587 14.3161 14.6213 14.8787Z" stroke="black" stroke-linejoin="round"/>
<path d="M16.5 10V7C16.5 4.79086 14.7091 3 12.5 3V3C10.2909 3 8.5 4.79086 8.5 7V10" stroke="black" stroke-width="2"/>
</svg>
