<svg width="25" height="24" viewBox="0 0 25 24" fill="none" xmlns="http://www.w3.org/2000/svg">
<path d="M18.1124 13.1753C18.5098 12.7321 18.6879 11.6753 18.5296 10.919C18.3714 10.1626 18.0638 9.44787 17.6244 8.81549C17.185 8.18311 16.6224 7.6455 15.9688 7.23335C15.3152 6.8212 14.5833 6.54259 13.815 6.41342C13.0466 6.28424 12.2568 6.30704 11.4907 6.48051C10.7246 6.65398 9.99717 6.97473 9.34994 7.42443C8.7027 7.87413 8.14834 8.44399 7.71852 9.10146C7.10028 10.0471 6.62127 11.9831 7.0542 12.8562" stroke="black" stroke-width="2" stroke-linecap="round" stroke-linejoin="round"/>
<path d="M18.6111 12.859L18.7654 12.8836C20.3409 13.1353 21.5 14.4943 21.5 16.0898C21.5 17.6192 20.2602 18.859 18.7308 18.859L6.73077 18.859C4.94646 18.859 3.5 17.4125 3.5 15.6282C3.5 13.8439 4.94646 12.3974 6.73077 12.3974H6.87247" stroke="black" stroke-width="2" stroke-linecap="round" stroke-linejoin="round"/>
</svg>
