<svg width="25" height="24" viewBox="0 0 25 24" fill="none" xmlns="http://www.w3.org/2000/svg">
<path d="M21.5 11.5V17C21.5 18.8856 21.5 19.8284 20.9142 20.4142C20.3284 21 19.3856 21 17.5 21H7.5C5.61438 21 4.67157 21 4.08579 20.4142C3.5 19.8284 3.5 18.8856 3.5 17V9C3.5 7.11438 3.5 6.17157 4.08579 5.58579C4.67157 5 5.61438 5 7.5 5H11" stroke="black" stroke-width="2" stroke-linecap="round" stroke-linejoin="round"/>
<path d="M16.356 12.963L20.4398 6.85791C21.2074 5.71027 20.8994 4.15762 19.7517 3.38996C18.6041 2.62231 17.0515 2.93034 16.2838 4.07798L12.2001 10.1831C11.0592 11.8886 10.4798 13.908 10.5428 15.959L10.5599 16.5153C10.5688 16.8041 10.8592 16.9984 11.1296 16.8964L11.6503 16.6998C13.57 15.975 15.2152 14.6686 16.356 12.963Z" stroke="black" stroke-width="2"/>
</svg>
