<svg width="25" height="24" viewBox="0 0 25 24" fill="none" xmlns="http://www.w3.org/2000/svg">
<g clip-path="url(#clip0_4_616)">
<path d="M19.0164 18.1935C17.7033 19.5812 15.9817 20.5136 14.102 20.8552C12.2224 21.1967 10.2828 20.9296 8.56544 20.0927C6.84809 19.2557 5.44262 17.8926 4.5535 16.2017C3.66439 14.5107 3.33803 12.5802 3.62191 10.691C3.9058 8.80178 4.78511 7.05242 6.13191 5.69748C7.47871 4.34253 9.22273 3.45268 11.1102 3.1574C12.9977 2.86213 14.9301 3.17684 16.6264 4.05573C18.0091 4.77217 19.1761 5.83302 20.0192 7.12817C20.3976 7.70951 20.5388 8.40546 20.5335 9.0991L20.5189 11.0096C20.5085 12.3881 19.388 13.5 18.0095 13.5V13.5C16.6235 13.5 15.5 12.3765 15.5 10.9905L15.5 9" stroke="black" stroke-width="2" stroke-linecap="round" stroke-linejoin="round"/>
<circle cx="12.5" cy="12" r="3" stroke="black" stroke-width="2"/>
</g>
<defs>
<clipPath id="clip0_4_616">
<rect width="24" height="24" fill="white" transform="translate(0.5)"/>
</clipPath>
</defs>
</svg>
