<svg width="25" height="24" viewBox="0 0 25 24" fill="none" xmlns="http://www.w3.org/2000/svg">
<path d="M4.15259 14.0059C7.99215 18.0498 9.58941 19 12.5 19C15.4106 19 17.0078 18.0498 20.8474 14.0059C21.6153 13.1972 21.7168 11.8805 21.0921 10.9377C19.4069 8.39463 16.8224 5 12.5 5C8.17762 5 5.59308 8.39463 3.90792 10.9377C3.28323 11.8805 3.38475 13.1972 4.15259 14.0059Z" stroke="black" stroke-width="2"/>
<circle cx="12.5" cy="12" r="3" stroke="black" stroke-width="2"/>
<path d="M5.5 21L10.1667 15M19.5 3L14.8333 9M10.1667 15L12.5 12L14.8333 9M10.1667 15L14.8333 9" stroke="black" stroke-width="2" stroke-linecap="round"/>
</svg>
