<svg width="25" height="24" viewBox="0 0 25 24" fill="none" xmlns="http://www.w3.org/2000/svg">
<path d="M17.3205 14.1007L16.5899 13.4178L16.5023 13.5116L16.4412 13.6244L17.3205 14.1007ZM7.67957 14.1007L8.55886 13.6245L8.49774 13.5116L8.41012 13.4179L7.67957 14.1007ZM10.7414 19.7534L9.86212 20.2297L9.86212 20.2297L10.7414 19.7534ZM14.2586 19.7534L15.1379 20.2297L15.1379 20.2297L14.2586 19.7534ZM18.097 9.59697C18.097 11.0747 17.5256 12.4167 16.5899 13.4178L18.051 14.7835C19.3193 13.4266 20.097 11.6015 20.097 9.59697H18.097ZM12.5 4C15.5911 4 18.097 6.50585 18.097 9.59697H20.097C20.097 5.40128 16.6957 2 12.5 2V4ZM6.90302 9.59697C6.90302 6.50585 9.40887 4 12.5 4V2C8.3043 2 4.90302 5.40128 4.90302 9.59697H6.90302ZM8.41012 13.4179C7.47437 12.4168 6.90302 11.0747 6.90302 9.59697H4.90302C4.90302 11.6016 5.68074 13.4267 6.94901 14.7836L8.41012 13.4179ZM6.80027 14.577L9.86212 20.2297L11.6207 19.2771L8.55886 13.6245L6.80027 14.577ZM9.86212 20.2297C10.9968 22.3245 14.0032 22.3245 15.1379 20.2297L13.3793 19.2771C13.0011 19.9754 11.9989 19.9754 11.6207 19.2771L9.86212 20.2297ZM15.1379 20.2297L18.1998 14.577L16.4412 13.6244L13.3793 19.2771L15.1379 20.2297Z" fill="black"/>
<circle cx="12.5" cy="10" r="2" stroke="black" stroke-width="2"/>
</svg>
