<svg width="25" height="24" viewBox="0 0 25 24" fill="none" xmlns="http://www.w3.org/2000/svg">
<path d="M21.5 11.8108V17C21.5 18.8856 21.5 19.8284 20.9142 20.4142C20.3284 21 19.3856 21 17.5 21H14.3947H7.5C5.61438 21 4.67157 21 4.08579 20.4142C3.5 19.8284 3.5 18.8856 3.5 17V13.2489C3.5 12.3161 3.5 11.8498 3.69301 11.4429C3.88602 11.036 4.24721 10.741 4.96958 10.151L9.8915 6.13067C11.1378 5.11263 11.761 4.60361 12.4908 4.61451C13.2206 4.6254 13.8283 5.1528 15.0437 6.20761L16.5329 7.5M21.5 11.8108L16.5329 7.5M21.5 11.8108V5C21.5 3.89543 20.6046 3 19.5 3V3V3C18.5826 3 18.1239 3 17.7619 3.14709C17.257 3.3522 16.8577 3.75442 16.6563 4.26075C16.5119 4.62385 16.5152 5.08254 16.5219 5.99992L16.5329 7.5" stroke="black" stroke-width="2"/>
<path d="M10 21.5V16.5C10 15.3954 10.8954 14.5 12 14.5H12.5C13.6046 14.5 14.5 15.3954 14.5 16.5V20" stroke="black" stroke-width="2"/>
</svg>
