<svg width="25" height="24" viewBox="0 0 25 24" fill="none" xmlns="http://www.w3.org/2000/svg">
<g clip-path="url(#clip0_4_604)">
<path d="M17.6186 19.7813C19.1875 18.6912 20.3676 17.1289 20.9873 15.3218C21.6069 13.5146 21.6338 11.5569 21.0639 9.73342C20.4941 7.90996 19.3572 6.3159 17.8188 5.1832C16.2804 4.05049 14.4207 3.43823 12.5102 3.4355C10.5998 3.43277 8.73833 4.03971 7.19668 5.16802C5.65503 6.29632 4.51363 7.88712 3.93856 9.70895C3.36349 11.5308 3.38475 13.4886 3.99925 15.2975C4.61374 17.1064 5.78942 18.672 7.35521 19.7666" stroke="black" stroke-width="2" stroke-linecap="round" stroke-linejoin="round"/>
<path d="M15.45 17.0024C16.3847 16.353 17.0877 15.4223 17.4569 14.3457C17.826 13.2692 17.842 12.1029 17.5025 11.0166C17.163 9.93034 16.4858 8.98072 15.5693 8.30593C14.6528 7.63115 13.545 7.26641 12.4069 7.26478C11.2688 7.26316 10.1598 7.62473 9.24144 8.29689C8.32304 8.96905 7.64308 9.91673 7.30049 11.002C6.95791 12.0874 6.97057 13.2537 7.33665 14.3313C7.70272 15.4089 8.4031 16.3416 9.33588 16.9936" stroke="black" stroke-width="2" stroke-linecap="round" stroke-linejoin="round"/>
<path d="M12.476 15C13.5901 15 14.452 14.0815 14.452 13C14.452 11.9185 13.5901 11 12.476 11C11.3619 11 10.5 11.9185 10.5 13C10.5 14.0815 11.3619 15 12.476 15Z" stroke="black" stroke-width="2"/>
</g>
<defs>
<clipPath id="clip0_4_604">
<rect width="24" height="24" fill="white" transform="translate(0.5)"/>
</clipPath>
</defs>
</svg>
