<svg width="25" height="24" viewBox="0 0 25 24" fill="none" xmlns="http://www.w3.org/2000/svg">
<path d="M18.1811 10.3017L19.3189 10.1983C20.4902 10.0918 21.5 11.014 21.5 12.1901V19C21.5 20.1046 20.6046 21 19.5 21H14H11.5C10.3954 21 9.5 20.1046 9.5 19V9.17707C9.5 8.73793 9.64453 8.311 9.91128 7.96217L12.4113 4.69293C13.5731 3.17367 16 3.99526 16 5.90784V8.30993C16 9.486 17.0098 10.4082 18.1811 10.3017Z" stroke="black" stroke-width="2"/>
<path d="M3.5 10V19C3.5 20.1046 4.39543 21 5.5 21H7.5C8.60457 21 9.5 20.1046 9.5 19V10C9.5 8.89543 8.60457 8 7.5 8H5.5C4.39543 8 3.5 8.89543 3.5 10Z" stroke="black" stroke-width="2"/>
</svg>
