<svg width="25" height="24" viewBox="0 0 25 24" fill="none" xmlns="http://www.w3.org/2000/svg">
<path d="M9.50166 11.2379C9.08744 11.237 8.75092 11.572 8.75 11.9862C8.74909 12.4004 9.08413 12.737 9.49834 12.7379L9.50166 11.2379ZM20.995 12.5436C21.2885 12.2514 21.2896 11.7765 20.9973 11.483L16.2349 6.69945C15.9427 6.40591 15.4678 6.40486 15.1743 6.69711C14.8807 6.98936 14.8797 7.46423 15.1719 7.75777L19.4052 12.0098L15.1532 16.243C14.8596 16.5353 14.8586 17.0101 15.1508 17.3037C15.4431 17.5972 15.9179 17.5983 16.2115 17.306L20.995 12.5436ZM9.49834 12.7379L20.4642 12.7621L20.4675 11.2621L9.50166 11.2379L9.49834 12.7379Z" fill="black"/>
<path d="M14.5 3H5.5C4.39543 3 3.5 3.89543 3.5 5V20.0526V20.0526C3.5 20.5758 3.92415 21 4.44737 21H14.5" stroke="black" stroke-width="2" stroke-linecap="round"/>
</svg>
