<svg width="25" height="24" viewBox="0 0 25 24" fill="none" xmlns="http://www.w3.org/2000/svg">
<path d="M3.5 8.05104C3.5 7.13166 4.12679 6.33071 5.01921 6.10969L7.01921 5.61438C8.28043 5.30203 9.5 6.25641 9.5 7.55573V12.0628V18.1166V18.1166C9.5 18.4118 9.29607 18.6679 9.00833 18.7341L5.94796 19.4374C4.69519 19.7253 3.5 18.7737 3.5 17.4882V8.05104Z" stroke="black" stroke-width="2"/>
<path d="M10 18.5L12.9738 19.311C14.246 19.658 15.5 18.7002 15.5 17.3815V7.93126C15.5 7.01072 14.8717 6.20906 13.9778 5.98916L11.3495 5.3426C10.517 5.1378 9.64658 5.48635 9.18554 6.20912L9 6.5" stroke="black" stroke-width="2"/>
<path d="M15 6.5L18.6652 5.59316C19.8998 5.28768 21.1022 6.19709 21.1444 7.46827L21.4439 16.4915C21.4763 17.4673 20.7994 18.3239 19.8425 18.518L15.5994 19.3784C15.2168 19.456 14.8191 19.3726 14.5 19.1477V19.1477" stroke="black" stroke-width="2"/>
</svg>
