<svg width="25" height="24" viewBox="0 0 25 24" fill="none" xmlns="http://www.w3.org/2000/svg">
<path d="M16.9626 10.19C17.2999 10.3961 17.579 10.7026 17.7727 11.0795C17.9663 11.4564 18.0678 11.8908 18.0673 12.3401C18.0667 12.7893 17.9641 13.2381 17.7695 13.6424C17.5749 14.0466 17.2949 14.3926 16.9571 14.6463" stroke="black" stroke-width="2" stroke-linecap="round" stroke-linejoin="round"/>
<path d="M8.03744 10.19C7.70016 10.3961 7.42102 10.7026 7.22738 11.0796C7.03373 11.4565 6.93221 11.8908 6.93277 12.3401C6.93333 12.7893 7.03595 13.2381 7.23057 13.6424C7.42519 14.0467 7.70513 14.3926 8.04299 14.6463" stroke="black" stroke-width="2" stroke-linecap="round" stroke-linejoin="round"/>
<path d="M6.48848 7.07996C5.62438 7.61347 4.9079 8.37833 4.40922 9.2996C3.91055 10.2209 3.64679 11.267 3.64378 12.3354C3.64076 13.4039 3.89861 14.458 4.39205 15.3946C4.88548 16.3312 5.59759 17.1181 6.45862 17.6782" stroke="black" stroke-width="2" stroke-linecap="round" stroke-linejoin="round"/>
<path d="M18.5115 7.07996C19.3756 7.61347 20.0921 8.37833 20.5908 9.2996C21.0895 10.2209 21.3532 11.267 21.3562 12.3354C21.3592 13.4039 21.1014 14.458 20.608 15.3946C20.1145 16.3312 19.4024 17.1181 18.5414 17.6782" stroke="black" stroke-width="2" stroke-linecap="round" stroke-linejoin="round"/>
<path d="M12.5001 14.4664C13.6142 14.4664 14.4761 13.548 14.4761 12.4664C14.4761 11.3849 13.6142 10.4664 12.5001 10.4664C11.386 10.4664 10.5241 11.3849 10.5241 12.4664C10.5241 13.548 11.386 14.4664 12.5001 14.4664Z" stroke="black" stroke-width="2"/>
</svg>
