<svg width="25" height="24" viewBox="0 0 25 24" fill="none" xmlns="http://www.w3.org/2000/svg">
<path d="M19.3586 9C19.4524 9.49246 19.5 9.99496 19.5 10.5C19.5 11.9118 19.8059 12.2647 19.9528 12.2647C20.8441 13.1931 21.7304 14.5313 21.4458 15.7941C20.9488 18 18.9609 18 12.5 18C6.03913 18 4.05116 18 3.55417 15.7941C3.26965 14.5313 4.15585 13.1931 5.04718 12.2647C5.1941 12.2647 5.5 11.9118 5.5 10.5C5.5 9.51509 5.68106 8.53982 6.03284 7.62987C6.38463 6.71993 6.90024 5.89314 7.55025 5.1967C8.20026 4.50026 8.97194 3.94781 9.82122 3.5709C10.6705 3.19399 11.5807 3 12.5 3C13.4193 3 14.3295 3.19399 15.1788 3.5709C15.583 3.75028 15.9696 3.9694 16.3338 4.22489" stroke="black" stroke-width="2"/>
<path d="M16.5 18C16.5 18.394 16.3965 18.7841 16.1955 19.1481C15.9945 19.512 15.6999 19.8427 15.3284 20.1213C14.957 20.3999 14.516 20.6209 14.0307 20.7716C13.5454 20.9224 13.0253 21 12.5 21C11.9747 21 11.4546 20.9224 10.9693 20.7716C10.484 20.6209 10.043 20.3999 9.67157 20.1213C9.30014 19.8427 9.0055 19.512 8.80448 19.1481C8.60346 18.7841 8.5 18.394 8.5 18" stroke="black" stroke-width="2"/>
<circle cx="18.5" cy="6" r="3" stroke="black" stroke-width="2"/>
</svg>
