<svg width="25" height="24" viewBox="0 0 25 24" fill="none" xmlns="http://www.w3.org/2000/svg">
<path d="M12.5 3C10.72 3 8.97991 3.52784 7.49987 4.51677C6.01983 5.50571 4.86627 6.91131 4.18508 8.55585C3.5039 10.2004 3.32567 12.01 3.67293 13.7558C4.0202 15.5016 4.87737 17.1053 6.13604 18.364C7.39471 19.6226 8.99836 20.4798 10.7442 20.8271C12.49 21.1743 14.2996 20.9961 15.9442 20.3149C17.5887 19.6337 18.9943 18.4802 19.9832 17.0001C20.9722 15.5201 21.5 13.78 21.5 12H12.5L12.5 3Z" stroke="black" stroke-width="2" stroke-linejoin="round"/>
<path d="M21.4991 8.82513C21.3824 7.26771 20.6908 5.80931 19.5588 4.73332C18.4268 3.65733 16.9352 3.0406 15.3739 3.00297L15.2302 8.96672C15.3118 8.96869 15.171 9.2148 15.2302 9.27104C15.2893 9.32728 15.5442 9.18964 15.5503 9.27104L21.4991 8.82513Z" stroke="black" stroke-width="2" stroke-linecap="round" stroke-linejoin="round"/>
</svg>
