<svg width="25" height="24" viewBox="0 0 25 24" fill="none" xmlns="http://www.w3.org/2000/svg">
<g clip-path="url(#clip0_3_550)">
<path d="M7.37516 19.9918C7.66332 19.8924 7.80741 19.8427 7.94666 19.8513C8.08591 19.8599 8.23908 19.9348 8.54543 20.0847C10.3258 20.9556 12.3503 21.217 14.3037 20.8174C16.467 20.3749 18.392 19.1526 19.7127 17.383C21.0333 15.6135 21.6574 13.4202 21.4662 11.2205C21.2749 9.02073 20.2817 6.96806 18.6754 5.45299C17.0692 3.93792 14.9621 3.06618 12.7549 3.00363C10.5478 2.94108 8.39467 3.69208 6.70521 5.11375C5.01576 6.53542 3.90787 8.52854 3.59234 10.7139C3.31333 12.6464 3.67111 14.6099 4.60005 16.3118C4.79375 16.6667 4.8906 16.8441 4.89754 17.0067C4.90449 17.1694 4.83183 17.3346 4.68652 17.665L4.28875 18.5695C3.73628 19.8258 3.46004 20.4539 3.77022 20.7907C4.08039 21.1276 4.72912 20.9039 6.02657 20.4567L7.37516 19.9918Z" stroke="black" stroke-width="2"/>
<path d="M10.5 10.5H15.5" stroke="black" stroke-width="2" stroke-linecap="round"/>
<path d="M9.5 14H11.5" stroke="black" stroke-width="2" stroke-linecap="round"/>
</g>
<defs>
<clipPath id="clip0_3_550">
<rect width="24" height="24" fill="white" transform="translate(0.5)"/>
</clipPath>
</defs>
</svg>
