<svg width="25" height="24" viewBox="0 0 25 24" fill="none" xmlns="http://www.w3.org/2000/svg">
<path d="M19.3262 9.51736C18.737 8.05464 17.6728 6.83266 16.3049 6.04801C14.9371 5.26337 13.345 4.96168 11.7849 5.19149C10.2248 5.4213 8.78735 6.16925 7.70383 7.31499C6.62031 8.46074 6 9.84689 5.81128 11.5082M5.81128 11.5082L4 8.84689M5.81128 11.5082L8.5 10.3469" stroke="black" stroke-width="2" stroke-linecap="round" stroke-linejoin="round"/>
<path d="M5.50002 14.5652C6.08925 16.0279 7.15341 17.2499 8.52129 18.0345C9.88916 18.8192 11.4812 19.1209 13.0413 18.8911C14.6014 18.6612 16.0389 17.9133 17.1224 16.7676C18.2059 15.6218 18.8262 14.2357 19.0149 12.5744M19.0149 12.5744L20.8262 15.2357M19.0149 12.5744L16.3262 13.7357" stroke="black" stroke-width="2" stroke-linecap="round" stroke-linejoin="round"/>
</svg>
