<svg width="25" height="24" viewBox="0 0 25 24" fill="none" xmlns="http://www.w3.org/2000/svg">
<path d="M5.72791 6.37542L4.95269 5.74373L4.95269 5.74373L5.72791 6.37542ZM4.72626 7.60465L3.95105 6.97295L3.95105 6.97295L4.72626 7.60465ZM4.73378 10.1406L5.50524 9.50431L5.50524 9.50431L4.73378 10.1406ZM4.46523 14.4762L5.23669 15.1124L5.23669 15.1124L4.46523 14.4762ZM4.45772 17.0121L3.6825 17.6438L3.6825 17.6438L4.45772 17.0121ZM5.45936 18.2413L6.23458 17.6096L5.45936 18.2413ZM7.94459 18.746L7.47719 17.862L7.94459 18.746ZM15.2523 19.3922L14.2717 19.1961L14.2717 19.1961L15.2523 19.3922ZM19.1399 18.0521L19.9151 18.6838L19.9151 18.6838L19.1399 18.0521ZM20.1416 16.8229L19.3663 16.1912L19.3663 16.1912L20.1416 16.8229ZM20.134 14.287L19.3626 14.9233L19.3626 14.9233L20.134 14.287ZM20.134 10.1406L19.3626 9.50431L19.3626 9.50431L20.134 10.1406ZM20.1416 7.60465L19.3663 8.23634L19.3663 8.23634L20.1416 7.60465ZM19.1399 6.37542L19.9151 5.74373L19.9151 5.74373L19.1399 6.37542ZM15.2523 4.60777L14.2717 4.80388L14.2717 4.80388L15.2523 4.60777ZM9.74429 4.60777L10.7249 4.80388L10.7249 4.80388L9.74429 4.60777ZM15.8299 5.81506L15.34 6.68684L15.8299 5.81506ZM19.6574 10.7185L18.886 10.0822L19.6574 10.7185ZM15.8823 5.8448L15.3847 6.71222L15.8823 5.8448ZM5.20066 13.5845L5.97212 14.2208L5.20066 13.5845ZM19.7795 13.8571L20.551 13.2208L19.7795 13.8571ZM19.2964 12.1758L20.2946 12.2364L19.2964 12.1758ZM9.63058 5.17629L10.6112 5.3724L9.63058 5.17629ZM9.62155 6.70665C9.62619 6.704 9.63083 6.70136 9.63547 6.69872L8.64845 4.95924C8.64221 4.96278 8.63597 4.96634 8.62974 4.9699L9.62155 6.70665ZM6.50313 7.00712C6.80425 6.63758 7.32433 6.53196 7.74574 6.75476L8.68053 4.98666C7.4163 4.31827 5.85604 4.63513 4.95269 5.74373L6.50313 7.00712ZM5.50148 8.23634L6.50313 7.00712L4.95269 5.74373L3.95105 6.97295L5.50148 8.23634ZM5.50524 9.50431C5.20194 9.13657 5.20037 8.60587 5.50148 8.23634L3.95105 6.97295C3.0477 8.08155 3.05242 9.67365 3.96232 10.7769L5.50524 9.50431ZM6.1912 10.336L5.50524 9.50431L3.96232 10.7769L4.64828 11.6086L6.1912 10.336ZM6.69044 11.9449C6.68846 11.8825 6.68746 11.8198 6.68746 11.7568H4.68746C4.68746 11.8409 4.6888 11.9248 4.69145 12.0083L6.69044 11.9449ZM5.23669 15.1124L5.97212 14.2208L4.4292 12.9482L3.69378 13.8399L5.23669 15.1124ZM5.23294 16.3804C4.93182 16.0109 4.93339 15.4802 5.23669 15.1124L3.69378 13.8399C2.78387 14.9431 2.77915 16.5352 3.6825 17.6438L5.23294 16.3804ZM6.23458 17.6096L5.23294 16.3804L3.6825 17.6438L4.68415 18.873L6.23458 17.6096ZM7.47719 17.862C7.05578 18.0848 6.5357 17.9792 6.23458 17.6096L4.68415 18.873C5.5875 19.9816 7.14775 20.2985 8.41198 19.6301L7.47719 17.862ZM7.68525 17.752L7.47719 17.862L8.41198 19.6301L8.62004 19.5201L7.68525 17.752ZM11.7054 20C11.2288 20 10.8184 19.6635 10.7249 19.1961L8.76371 19.5883C9.04416 20.9906 10.2754 22 11.7054 22V20ZM13.2911 20H11.7054V22H13.2911V20ZM14.2717 19.1961C14.1782 19.6635 13.7678 20 13.2911 20V22C14.7211 22 15.9524 20.9906 16.2328 19.5883L14.2717 19.1961ZM14.309 19.0093L14.2717 19.1961L16.2328 19.5883L16.2702 19.4015L14.309 19.0093ZM18.3647 17.4205C18.0636 17.79 17.5435 17.8956 17.1221 17.6728L16.1873 19.4409C17.4515 20.1093 19.0118 19.7924 19.9151 18.6838L18.3647 17.4205ZM19.3663 16.1912L18.3647 17.4205L19.9151 18.6838L20.9168 17.4546L19.3663 16.1912ZM19.3626 14.9233C19.6659 15.291 19.6675 15.8217 19.3663 16.1912L20.9168 17.4546C21.8201 16.346 21.8154 14.7539 20.9055 13.6507L19.3626 14.9233ZM19.008 14.4934L19.3626 14.9233L20.9055 13.6507L20.551 13.2208L19.008 14.4934ZM18.3091 11.7568C18.3091 11.8773 18.3054 11.9968 18.2982 12.1152L20.2946 12.2364C20.3042 12.0776 20.3091 11.9177 20.3091 11.7568H18.3091ZM19.3626 9.50431L18.886 10.0822L20.4289 11.3547L20.9055 10.7769L19.3626 9.50431ZM19.3663 8.23634C19.6675 8.60587 19.6659 9.13657 19.3626 9.50431L20.9055 10.7769C21.8154 9.67365 21.8201 8.08155 20.9168 6.97295L19.3663 8.23634ZM18.3647 7.00712L19.3663 8.23634L20.9168 6.97295L19.9151 5.74373L18.3647 7.00712ZM17.1221 6.75476C17.5435 6.53196 18.0636 6.63758 18.3647 7.00712L19.9151 5.74373C19.0118 4.63513 17.4515 4.31827 16.1873 4.98666L17.1221 6.75476ZM15.34 6.68684C15.355 6.69524 15.3699 6.7037 15.3847 6.71222L16.3799 4.97739C16.3599 4.96593 16.3399 4.95455 16.3198 4.94327L15.34 6.68684ZM14.2717 4.80388L14.3909 5.40018L16.3521 5.00794L16.2328 4.41165L14.2717 4.80388ZM13.2911 4C13.7678 4 14.1782 4.33646 14.2717 4.80388L16.2328 4.41165C15.9524 3.00938 14.7211 2 13.2911 2V4ZM11.7054 4H13.2911V2H11.7054V4ZM10.7249 4.80388C10.8184 4.33646 11.2288 4 11.7054 4V2C10.2754 2 9.04416 3.00938 8.76371 4.41165L10.7249 4.80388ZM10.6112 5.3724L10.7249 4.80388L8.76371 4.41165L8.65 4.98017L10.6112 5.3724ZM16.3198 4.94327C16.3179 4.94221 16.3219 4.94379 16.3287 4.95274C16.3361 4.9625 16.3467 4.9811 16.3521 5.00794L14.3909 5.40018C14.5068 5.97962 14.8831 6.43009 15.34 6.68684L16.3198 4.94327ZM20.3091 11.7568C20.3091 11.5668 20.3643 11.433 20.4289 11.3547L18.886 10.0822C18.4721 10.584 18.3091 11.1947 18.3091 11.7568H20.3091ZM16.2702 19.4015C16.2692 19.4067 16.2653 19.4168 16.2576 19.4264C16.251 19.4347 16.2442 19.4394 16.2386 19.442C16.233 19.4447 16.2251 19.447 16.2145 19.4469C16.2022 19.4468 16.192 19.4434 16.1873 19.4409L17.1221 17.6728C15.9734 17.0655 14.5639 17.7352 14.309 19.0093L16.2702 19.4015ZM8.62004 19.5201C8.6787 19.4891 8.75069 19.5233 8.76371 19.5883L10.7249 19.1961C10.4495 17.8194 8.92644 17.0958 7.68525 17.752L8.62004 19.5201ZM16.1873 4.98666C16.279 4.93816 16.3523 4.96158 16.3799 4.97739L15.3847 6.71222C15.8884 7.00115 16.5451 7.05982 17.1221 6.75476L16.1873 4.98666ZM4.69145 12.0083C4.70442 12.4173 4.6013 12.7396 4.4292 12.9482L5.97212 14.2208C6.53612 13.5369 6.71414 12.6923 6.69044 11.9449L4.69145 12.0083ZM4.64828 11.6086C4.66108 11.6241 4.68746 11.6699 4.68746 11.7568H6.68746C6.68746 11.2744 6.54057 10.7596 6.1912 10.336L4.64828 11.6086ZM20.551 13.2208C20.3716 13.0033 20.2686 12.664 20.2946 12.2364L18.2982 12.1152C18.2511 12.8924 18.4194 13.7797 19.008 14.4934L20.551 13.2208ZM9.63547 6.69872C10.1036 6.43312 10.4917 5.96995 10.6112 5.3724L8.65 4.98017C8.65173 4.97152 8.6543 4.9642 8.65686 4.95862C8.65937 4.95317 8.66152 4.95012 8.66226 4.94916C8.66295 4.94824 8.66237 4.94919 8.65992 4.95131C8.65746 4.95344 8.65366 4.95629 8.64845 4.95924L9.63547 6.69872ZM8.62974 4.9699C8.62231 4.97414 8.62004 4.97287 8.62707 4.97256C8.6358 4.97217 8.65634 4.97387 8.68053 4.98666L7.74574 6.75476C8.37156 7.08563 9.08072 7.01551 9.62155 6.70665L8.62974 4.9699Z" fill="black"/>
<circle cx="12.5" cy="12" r="3" stroke="black" stroke-width="2"/>
</svg>
