<svg width="25" height="24" viewBox="0 0 25 24" fill="none" xmlns="http://www.w3.org/2000/svg">
<g clip-path="url(#clip0_3_566)">
<path d="M10.5832 7.43556C11.364 4.81401 11.7544 3.50323 12.5 3.50323C13.2456 3.50323 13.636 4.81401 14.4168 7.43556L14.544 7.8627C14.749 8.55103 14.8515 8.8952 15.1175 9.0935C15.3835 9.2918 15.7426 9.2918 16.4608 9.2918H17.2184C19.6066 9.2918 20.8007 9.2918 21.0344 9.96293C21.2681 10.6341 20.3323 11.3758 18.4607 12.8592L17.5569 13.5755C17.0431 13.9828 16.7861 14.1864 16.6939 14.4788C16.6017 14.7713 16.6953 15.0854 16.8824 15.7138L17.1557 16.6315C17.8986 19.1255 18.27 20.3725 17.6628 20.7835C17.0557 21.1944 16.036 20.3862 13.9967 18.7698L13.7423 18.5682C13.1463 18.0958 12.8482 17.8596 12.5 17.8596C12.1518 17.8596 11.8537 18.0958 11.2577 18.5682L11.0033 18.7698C8.96398 20.3862 7.9443 21.1944 7.33716 20.7835C6.73003 20.3725 7.10144 19.1255 7.84425 16.6315L8.11759 15.7138C8.30475 15.0854 8.39833 14.7713 8.30609 14.4788C8.21385 14.1864 7.95693 13.9828 7.4431 13.5755L6.53929 12.8592C4.66769 11.3758 3.73189 10.6341 3.96561 9.96293C4.19932 9.2918 5.39341 9.2918 7.78159 9.2918H8.53921C9.25742 9.2918 9.61653 9.2918 9.8825 9.0935C10.1485 8.8952 10.251 8.55103 10.456 7.8627L10.5832 7.43556Z" stroke="black" stroke-width="2"/>
</g>
<defs>
<clipPath id="clip0_3_566">
<rect width="24" height="24" fill="white" transform="translate(0.5)"/>
</clipPath>
</defs>
</svg>
