<svg width="25" height="24" viewBox="0 0 25 24" fill="none" xmlns="http://www.w3.org/2000/svg">
<path d="M10.6137 7.35251C11.3993 5.12326 11.7921 4.00863 12.5 4.00863C13.2079 4.00863 13.6007 5.12326 14.3863 7.35251L14.8955 8.79737C15.0458 9.2238 15.1209 9.43701 15.2731 9.59412C15.4253 9.75123 15.636 9.8331 16.0575 9.99684L17.7019 10.6358C19.7265 11.4224 20.7388 11.8157 20.7388 12.5C20.7388 13.1843 19.7265 13.5776 17.7019 14.3642L16.0575 15.0032C15.636 15.1669 15.4253 15.2488 15.2731 15.4059C15.1209 15.563 15.0458 15.7762 14.8955 16.2026L14.3863 17.6475C13.6007 19.8767 13.2079 20.9914 12.5 20.9914C11.7921 20.9914 11.3993 19.8767 10.6137 17.6475L10.1045 16.2026C9.95424 15.7762 9.8791 15.563 9.72691 15.4059C9.57471 15.2488 9.36399 15.1669 8.94255 15.0032L7.2981 14.3642C5.27351 13.5776 4.26121 13.1843 4.26121 12.5C4.26121 11.8157 5.27351 11.4224 7.29811 10.6358L8.94255 9.99684C9.36399 9.8331 9.57471 9.75123 9.72691 9.59412C9.8791 9.43701 9.95424 9.2238 10.1045 8.79737L10.6137 7.35251Z" stroke="black" stroke-width="2"/>
</svg>
