<svg width="25" height="24" viewBox="0 0 25 24" fill="none" xmlns="http://www.w3.org/2000/svg">
<g clip-path="url(#clip0_4_630)">
<path d="M19 13V8" stroke="black" stroke-width="2" stroke-linecap="round"/>
<path d="M16.5 10.5H21.5" stroke="black" stroke-width="2" stroke-linecap="round"/>
<circle cx="10.5" cy="7" r="3" stroke="black" stroke-width="2"/>
<path d="M16.9672 17.9385C17.0944 18.2895 17.1993 18.6496 17.2813 19.016C17.5228 20.0939 16.6046 21 15.5 21H10.5L5.5 21C4.39543 21 3.47724 20.0939 3.71867 19.016C3.80074 18.6496 3.90563 18.2895 4.03284 17.9385C4.38463 16.9679 4.90024 16.086 5.55025 15.3431C6.20026 14.6003 6.97194 14.011 7.82122 13.609C8.67049 13.2069 9.58075 13 10.5 13C11.4193 13 12.3295 13.2069 13.1788 13.609C14.0281 14.011 14.7997 14.6003 15.4497 15.3431C16.0998 16.086 16.6154 16.9679 16.9672 17.9385Z" stroke="black" stroke-width="2"/>
</g>
<defs>
<clipPath id="clip0_4_630">
<rect width="24" height="24" fill="white" transform="translate(0.5)"/>
</clipPath>
</defs>
</svg>
