<svg width="25" height="24" viewBox="0 0 25 24" fill="none" xmlns="http://www.w3.org/2000/svg">
<g clip-path="url(#clip0_3_561)">
<circle cx="12.5" cy="7" r="3" stroke="black" stroke-width="2"/>
<path d="M18.9672 17.9385C19.0944 18.2895 19.1993 18.6496 19.2813 19.016C19.5228 20.0939 18.6046 21 17.5 21H12.5L7.5 21C6.39543 21 5.47724 20.0939 5.71867 19.016C5.80074 18.6496 5.90563 18.2895 6.03284 17.9385C6.38463 16.9679 6.90024 16.086 7.55025 15.3431C8.20026 14.6003 8.97194 14.011 9.82122 13.609C10.6705 13.2069 11.5807 13 12.5 13C13.4193 13 14.3295 13.2069 15.1788 13.609C16.0281 14.011 16.7997 14.6003 17.4497 15.3431C18.0998 16.086 18.6154 16.9679 18.9672 17.9385Z" stroke="black" stroke-width="2"/>
</g>
<defs>
<clipPath id="clip0_3_561">
<rect width="24" height="24" fill="white" transform="translate(0.5)"/>
</clipPath>
</defs>
</svg>
